<?xml version="1.0" encoding="utf-8" ?><svg xmlns="http://www.w3.org/2000/svg" xmlns:xlink="http://www.w3.org/1999/xlink" width="309" height="418" viewBox="0 0 309 418"><path d="M0 0L309 0L309 418L0 418L0 0Z"/><path fill="#A7A6A6" d="M148.431 143.81C159.22 142.999 163.467 146.928 174.461 144.575C172.954 145.608 170.868 146.815 169.277 147.796C173.053 147.415 175.06 146.699 178.364 145.027C174.066 150.115 172.413 150.599 165.861 151.284C170.429 153.195 171.435 153.625 176.34 153.657C168.57 155.874 166.115 156.204 159.444 151.129C168.626 164.455 165.492 171.21 168.731 186.031C171.095 196.848 175.426 203.657 173.43 215.759C172.427 221.841 171.158 224.454 169.117 230.39C166.449 238.152 165.229 243.876 165.182 252.037C163.238 244.386 162.15 239.115 158.148 232.303C159.639 262.246 173.517 278.346 198.157 292.769C205.075 296.818 211.97 300.737 217.502 306.598C228.977 318.757 224.786 338.455 212.977 348.731C213.623 345 213.526 340.543 213.475 336.828C213.2 319.822 194.628 310.759 184.248 300.683C170.701 287.534 161.764 272.788 158.868 254.093C158.646 252.659 157.925 247.295 157.156 246.613C156.48 247.782 156.918 255.746 156.966 257.582C157.466 276.613 169.536 292.597 181.295 306.556C186.467 312.696 191.925 318.275 195.166 325.744C199.445 335.033 200.196 345.226 196.519 354.864C193.448 362.914 189.039 370.56 180.969 374.31C185.874 369.214 186.991 359.961 185.465 353.256C179.201 325.722 163.057 302.187 157.11 274.396C156.403 271.099 155.775 265.446 155.303 261.946C154.378 264.848 154.186 268.722 153.446 271.835C149.35 289.055 142.179 304.988 135.907 321.552C130.486 335.869 120.092 352.362 125.377 368.274C126.079 370.386 127.289 372.47 128.416 374.373C119.715 368.406 114.985 362.186 112.268 352.146C106.839 332.079 119.688 317.335 131.665 303.092C136.414 297.443 141.765 289.42 145.257 282.808C151.498 271.156 154.313 257.976 153.378 244.792C152.392 248.699 151.891 254.072 150.698 258.701C145.65 280.255 132.869 297.112 114.994 309.958C101.739 319.484 91.876 330.729 96.6758 348.633C87.8893 341.26 85.1629 331.735 86.216 320.55C87.6616 305.198 102.738 298.437 114.147 291.586C118.431 288.983 122.534 286.091 126.426 282.932C143.672 269.078 149.44 253.623 151.764 232.194C149.577 236.426 148.229 239.606 147.041 244.297C146.489 246.476 145.98 249.797 145.155 251.715C145.339 231.508 131.842 220.419 137.416 200.636C139.544 192.662 144.353 185.817 148.021 178.486C149.814 174.901 149.795 172.642 150.901 169.233L151.269 169.096C152.105 170.325 151.355 171.119 152.097 172.721L152.342 172.36C153.359 161.362 135.931 154.127 132.038 163.186L131.658 163.093C130.323 161.436 131.783 156.466 133.195 154.964C133.566 154.34 137.421 153.837 137.482 153.355C138.267 147.07 142.184 145.018 148.431 143.81Z"/><path d="M149.921 149.607C150.555 149.497 150.522 149.49 151.142 149.648C151.128 151.758 145.423 153.738 143.455 153.908C142.609 153.878 142.165 153.957 141.5 153.459C141.458 151.02 147.972 149.743 149.921 149.607Z"/><path fill="#A7A6A6" d="M155.058 280.447C155.791 281.221 156.955 286.566 157.294 287.914C158.613 293.241 159.963 298.56 161.344 303.871C163.231 310.906 165.901 317.358 168.318 324.236C172.971 337.481 173.68 350.14 169.493 363.554C166.133 374.317 158.509 381.803 155.287 391.992C155.163 391.965 154.942 391.819 154.817 391.747C153.864 386.353 147.487 377.202 144.618 371.93C142.493 368.048 140.891 363.902 139.856 359.599C135.898 343.326 139.575 329.804 145.614 314.841C148.33 308.11 150.06 300.311 151.887 293.265C152.956 289.143 154.336 284.602 155.058 280.447Z"/><path d="M154.822 295.685L155.126 296.056C155.41 299.492 156.26 303.378 156.808 306.864C160.238 328.695 164.946 352.481 156.705 373.809C156.089 375.402 155.481 379.784 154.682 380.791C153.994 378.91 153.66 376.608 152.94 374.751C144.784 353.711 148.682 331.111 152.102 309.538C152.811 305.069 153.592 300.032 154.822 295.685Z"/><path fill="#A7A6A6" d="M268.793 92.1239C270.324 92.7245 274.344 100.38 275.178 101.994C279.526 110.41 280.654 120.472 277.495 129.537C272.278 144.506 255.918 156.809 242.396 164.222C232.383 169.712 221.797 173.69 212.336 180.628C208.143 183.703 205.426 186.411 201.767 190.116C195.826 196.132 191.312 199.89 183.766 203.556C181.11 204.619 178.69 205.302 175.956 206.104C179.41 203.859 184.921 199.072 187.945 196.348C196.176 188.934 203.926 181.324 212.364 174.1C224.388 163.805 238.731 155.715 249.885 144.668C255.803 138.838 260.75 132.099 264.538 124.706C268.905 116.325 270.421 109.364 269.86 99.9497C269.708 97.3933 269.563 94.5816 268.793 92.1239Z"/><path fill="#A7A6A6" d="M40.1186 92.4094C40.3974 93.1309 39.8359 96.906 39.7082 98.0032C38.3875 109.354 40.865 116.7 45.9218 126.618C57.2969 148.926 79.2114 158.78 97.2913 174.365C109.354 184.763 120.199 195.907 132.804 205.801C130.422 205.246 128.086 204.511 125.816 203.602C113.491 198.564 106.714 187.266 96.1425 179.934C89.255 175.156 81.9513 171.78 74.488 168.067C69.0751 165.408 63.8114 162.455 58.7205 159.222C36.3179 144.83 20.0776 122.624 37.1216 96.8487C38.1035 95.3637 39.1528 93.9055 40.1186 92.4094Z"/><path fill="#A7A6A6" d="M239.385 73.1824C239.562 73.2654 239.695 73.3335 239.839 73.4692C254.762 87.5525 258.864 103.954 253.401 123.422C245.758 150.655 219.699 158.576 203.36 177.915C201.505 179.941 200.022 182.141 197.985 184.288C199.673 176.406 202.112 173.391 207.069 167.071C219.184 151.626 233.431 140.879 240.934 122.032C248.197 103.788 246.464 90.9378 239.385 73.1824Z"/><path fill="#A7A6A6" d="M69.9757 73.2194C70.0278 73.9415 67.0836 80.7386 66.6509 82.009C59.5362 102.894 66.4195 124.048 79.4758 140.951C84.6532 147.654 91.7201 154.438 97.3568 161.086C104.436 169.435 108.372 173.768 111.762 184.19C110.116 182.699 108.306 180.469 106.825 178.742C102.293 173.842 98.8792 170.296 93.599 166.092C83.5 158.052 74.25 152.172 65.8485 141.952C56.8383 131.03 52.5408 116.974 53.9033 102.881C54.9795 91.9645 61.5694 80.119 69.9757 73.2194Z"/><path fill="#A7A6A6" d="M289.824 170.498L289.876 170.83C289.39 172.49 286.975 175.831 285.89 177.256C281.69 182.838 275.996 186.509 270.011 189.75C257.404 196.574 246.058 197.376 231.952 197.354C221.251 197.338 210.23 197.411 199.471 198.71L199.45 198.637C199.961 197.62 207.746 194.229 209.176 193.762C214.468 192.037 220 190.535 225.394 189.172C232.215 187.384 239.101 185.851 246.037 184.576C263.31 181.571 274.84 180.546 289.824 170.498Z"/><path fill="#A7A6A6" d="M19.4437 170.657C20.5731 170.966 24.0594 173.658 25.455 174.394C38.1983 181.118 52.0708 182.52 66.0961 185.086C74.371 186.683 82.5749 188.627 90.6861 190.915C98.1157 192.972 103.747 194.431 110.124 198.784C98.8102 197.104 88.231 197.592 76.8978 197.342C69.6018 197.181 58.6301 197.231 51.8103 194.843C37.4902 189.829 26.548 184.343 19.4437 170.657Z"/><path fill="#A7A6A6" d="M288.377 138.447L288.534 138.645C289.04 141.117 285.131 150.992 283.788 153.524C272.2 175.377 249.305 178.505 227.476 183.518C219.678 185.308 212.056 187.664 204.45 190.034L204.277 189.973C204.834 188.743 214.498 183.321 216.043 182.541C239.586 170.648 272.288 160.556 288.377 138.447Z"/><path fill="#A7A6A6" d="M20.6835 138.425C21.2288 138.746 26.2803 144.827 27.5989 146.055C42.7984 160.209 62.4838 168.389 81.0619 176.79C88.7289 180.258 99.31 184.975 105.182 190.026C104.29 190.037 99.1968 188.304 97.9541 187.921C93.332 186.449 88.6577 185.145 83.9406 184.014C73.8359 181.618 63.7825 179.785 53.9621 176.382C49.278 174.792 44.8021 172.644 40.631 169.985C28.6068 162.282 23.5953 151.768 20.6835 138.425Z"/><path fill="#A7A6A6" d="M274.332 198.518L274.81 198.487C274.443 200.144 266.016 207.123 263.933 208.312C261.158 209.98 257.329 211.995 254.038 212.407C235.168 214.764 213.313 211.08 195.098 207.043C192.809 206.622 190.36 206.056 188.069 205.572C197.678 202.155 205.869 202.592 215.915 202.469C224.821 202.38 233.725 202.228 242.628 202.012C254.67 201.704 262.69 202.018 274.332 198.518Z"/><path fill="#A7A6A6" d="M34.2988 198.51C39.4113 199.634 43.3784 200.869 48.7237 201.302C53.4012 201.681 57.8043 201.743 62.4846 201.883C71.3803 202.17 80.2795 202.338 89.1797 202.386C101.143 202.537 110.077 202.008 121.644 205.471C119.653 205.819 117.353 206.408 115.27 206.805C98.321 211.064 77.3755 213.737 59.9036 212.981C49.4464 212.529 41.0254 206.198 34.2988 198.51Z"/><path fill="#A7A6A6" d="M182.29 209.558C184.543 209.262 196.536 211.191 199.491 211.668C214.34 214.067 229.223 217.148 244.214 218.696C249.35 219.226 256.594 217.843 262.12 217.413C260.244 219.046 258.329 220.635 256.378 222.177C248.518 227.741 241.454 229.457 231.864 227.722C219.154 225.422 206.893 221.771 195.092 216.488C190.411 214.393 186.713 211.934 182.29 209.558Z"/><path fill="#A7A6A6" d="M124.902 209.597C125.636 209.488 125.775 209.462 126.504 209.578C126.22 210.175 122.868 211.975 122.166 212.379C109.226 219.818 94.9531 224.122 80.4285 227.187C69.9894 229.389 63.04 228.79 54.084 222.861C51.8644 221.313 49.4504 219.198 47.1352 217.519C51.5531 217.739 59.1017 219.15 62.9461 218.808C83.7598 216.957 104.107 212.153 124.902 209.597Z"/><path fill="#A7A6A6" d="M130.302 213.02L130.5 213.346C128.182 215.358 126.141 217.744 123.843 219.778C116.91 225.915 109.888 230.571 101.851 235.123C90.168 241.741 79.388 244.663 67.0054 237.972L62.6681 235.388C65.2323 235.197 68.6781 234.679 71.3164 234.377C75.475 233.742 80.3928 233.788 84.4071 232.656C100.403 228.145 115.436 220.039 130.302 213.02Z"/><path fill="#A7A6A6" d="M178.512 212.963C179.658 213.238 184.679 215.822 186.029 216.494C189.438 218.194 192.878 219.832 196.346 221.407C207.447 226.467 220.307 232.611 232.573 233.802C237.383 234.269 242.178 234.857 246.961 235.524C245.318 236.202 243.946 237.095 242.431 238.016C221.511 251.124 192.86 226.711 178.512 212.963Z"/><path fill="#A7A6A6" d="M132.024 219.71L132.19 219.735L132.306 219.995C130.05 222.706 128.505 225.914 126.264 228.551C115.472 241.252 100.301 259.894 81.6277 250.304C80.4971 249.623 79.01 248.537 77.8903 247.771C80.52 247.812 83.543 247.905 86.142 247.518C104.928 244.724 115.681 228.563 132.024 219.71Z"/><path fill="#A7A6A6" d="M176.826 219.676C179.31 220.345 183.576 223.49 185.64 224.999C197.625 233.766 208.606 246.148 224.233 247.64C226.664 247.873 229.129 247.794 231.576 247.754L228.668 249.733C208.014 262.713 186.857 234.107 176.826 219.676Z"/><path fill="#A7A6A6" d="M133.665 226.195C133.709 226.368 133.772 226.577 133.753 226.762C132.596 238.066 126.782 248.386 118.334 255.721C111.926 261.284 105.881 261.013 98.2992 260.378L98.0197 260.209C98.3725 259.556 102.55 257.028 103.604 256.357C106.215 254.696 108.361 253.078 110.734 251.08C116.476 246.218 121.787 240.87 126.608 235.095C129.002 232.174 131.134 229.044 133.665 226.195Z"/><path fill="#A7A6A6" d="M175.674 225.876C176.668 226.663 179.587 231.133 180.597 232.396C186.805 240.178 193.956 247.631 201.809 253.77C204.484 255.861 208.435 258.021 211.359 260.05L211.326 260.341C203.495 261.012 197.083 261.151 190.727 255.514C181.865 247.653 176.663 237.569 175.674 225.876Z"/><path fill="#A7A6A6" d="M171.294 232.953C171.736 233.374 174.615 241.069 175.185 242.295C177.474 247.102 180.195 251.691 183.315 256.005C184.178 257.212 189.569 263.093 189.632 263.427C183.133 262.258 175.925 255.563 173.07 249.712C171.095 245.664 170.017 237.282 171.294 232.953Z"/><path fill="#A7A6A6" d="M138.106 233.161C138.558 234.239 138.429 237.757 138.475 239.019C138.909 251.083 130.769 259.539 120.112 263.485L119.947 263.367C120.028 262.958 124.252 258.294 124.917 257.456C126.319 255.68 127.637 253.841 128.869 251.943C133.666 244.616 134.682 240.327 138.106 233.161Z"/></svg>